<?xml version="1.0" encoding="iso-8859-1"?>
<!-- Generator: Adobe Illustrator 19.0.0, SVG Export Plug-In . SVG Version: 6.00 Build 0)  -->
<svg version="1.1" id="Capa_1" xmlns="http://www.w3.org/2000/svg" xmlns:xlink="http://www.w3.org/1999/xlink" x="0px" y="0px"
	 viewBox="0 0 468.293 468.293" style="enable-background:new 0 0 468.293 468.293;" xml:space="preserve">
<circle style="fill:#EBF0F3;" cx="234.146" cy="234.146" r="234.146"/>
<circle style="fill:#27A2DB;" cx="234.146" cy="234.146" r="181.073"/>
<g>
	<path style="fill:#FCD462;" d="M214.166,159.22v149.854c0,6.868-5.62,12.488-12.488,12.488h-48.702
		c-6.868,0-12.488-5.62-12.488-12.488V159.22c0-6.868,5.62-12.488,12.488-12.488h48.702
		C208.546,146.732,214.166,152.351,214.166,159.22z"/>
	<path style="fill:#FCD462;" d="M327.805,159.22v149.854c0,6.868-5.62,12.488-12.488,12.488h-48.702
		c-6.868,0-12.488-5.62-12.488-12.488V159.22c0-6.868,5.62-12.488,12.488-12.488h48.702
		C322.185,146.732,327.805,152.351,327.805,159.22z"/>
</g>
<g>
</g>
<g>
</g>
<g>
</g>
<g>
</g>
<g>
</g>
<g>
</g>
<g>
</g>
<g>
</g>
<g>
</g>
<g>
</g>
<g>
</g>
<g>
</g>
<g>
</g>
<g>
</g>
<g>
</g>
</svg>
