<svg height='300px' width='300px'  fill="#000000" xmlns="http://www.w3.org/2000/svg" viewBox="0 0 32 32" x="0px" y="0px"><title>filter</title><g><path d="M6,9h4.278a1.982,1.982,0,0,0,3.443,0H26a1,1,0,0,0,0-2H13.722a1.982,1.982,0,0,0-3.443,0H6A1,1,0,0,0,6,9Z"></path><path d="M26,15H21.722a1.982,1.982,0,0,0-3.443,0H6a1,1,0,0,0,0,2H18.278a1.982,1.982,0,0,0,3.443,0H26a1,1,0,0,0,0-2Z"></path><path d="M26,23H13.722a1.982,1.982,0,0,0-3.443,0H6a1,1,0,0,0,0,2h4.278a1.982,1.982,0,0,0,3.443,0H26a1,1,0,0,0,0-2Z"></path></g></svg>