<svg height='300px' width='300px'  fill="#000000" xmlns="http://www.w3.org/2000/svg" viewBox="0 0 32 32" x="0px" y="0px"><title>first page</title><path d="M25.032,9.254a1.839,1.839,0,0,0-1.854-.009l-5.489,3.117v-1.4a1.978,1.978,0,0,0-.968-1.709,1.844,1.844,0,0,0-1.854-.01L5.982,14.288a1.995,1.995,0,0,0-.159,3.333l8.883,6.3a1.856,1.856,0,0,0,1.933.138,1.957,1.957,0,0,0,1.05-1.753V20.143l5.329,3.782a1.858,1.858,0,0,0,1.932.139A1.958,1.958,0,0,0,26,22.31V10.963A1.978,1.978,0,0,0,25.032,9.254ZM15.73,22.2,6.972,16.027l8.717-4.949V13.5l-1.393.791a1.994,1.994,0,0,0-.161,3.333l1.556,1.1Zm-.446-6.174L24,11.078,24.043,22.2Z"></path></svg>