<svg height='300px' width='300px'  fill="#000000" xmlns="http://www.w3.org/2000/svg" viewBox="0 0 32 32" x="0px" y="0px"><title>music notes</title><path d="M25.986,6.929c0-.024.008-.046,0-.071a.954.954,0,0,0-.043-.121.93.93,0,0,0-.824-.712A.942.942,0,0,0,25,6c-.024,0-.045.012-.069.014s-.048-.008-.073,0l-14,2a.941.941,0,0,0-.122.043.97.97,0,0,0-.186.066.96.96,0,0,0-.157.106.9.9,0,0,0-.368.648A.943.943,0,0,0,10,9V20H9a3,3,0,1,0,3,3V14.868l12-1.714V18H23a3,3,0,1,0,3,3V7C26,6.975,25.988,6.954,25.986,6.929ZM10,23a1,1,0,1,1-1-1h1Zm14-2a1,1,0,1,1-1-1h1ZM12,12.847V9.868L24,8.153v2.979Z"></path></svg>