<svg height='300px' width='300px'  fill="#000000" xmlns="http://www.w3.org/2000/svg" viewBox="0 0 32 32" x="0px" y="0px"><title>music list</title><g><path d="M20,25a3,3,0,0,1,0-6h1V8a1,1,0,0,1,1.707-.707l.586.586A3.85,3.85,0,0,0,26,9h0a1,1,0,0,1,0,2h0a5.86,5.86,0,0,1-3-.833V22A3,3,0,0,1,20,25Zm0-4a1,1,0,1,0,1,1V21Z"></path><path d="M17,9H6A1,1,0,0,1,6,7H17a1,1,0,0,1,0,2Z"></path><path d="M15,17H6a1,1,0,0,1,0-2h9a1,1,0,0,1,0,2Z"></path><path d="M13,25H6a1,1,0,0,1,0-2h7a1,1,0,0,1,0,2Z"></path></g></svg>