<svg height='300px' width='300px'  fill="#000000" xmlns="http://www.w3.org/2000/svg" viewBox="0 0 32 32" x="0px" y="0px"><title>volume close</title><g><path d="M15.723,6a2.289,2.289,0,0,0-1.916,1.047L11.511,10H7a2,2,0,0,0-2,2v8a2,2,0,0,0,2,2h4.511l2.3,2.953A2.277,2.277,0,0,0,18,23.723V8.277A2.28,2.28,0,0,0,15.723,6ZM16,23.723a.287.287,0,0,1-.515.142,1.046,1.046,0,0,0-.068-.1l-2.628-3.38A1,1,0,0,0,12,20H7V12h5a1,1,0,0,0,.79-.386l2.628-3.38a1.046,1.046,0,0,0,.068-.1A.288.288,0,0,1,16,8.277Z"></path><path d="M24.414,16l2.293-2.293a1,1,0,0,0-1.414-1.414L23,14.586l-2.293-2.293a1,1,0,0,0-1.414,1.414L21.586,16l-2.293,2.293a1,1,0,1,0,1.414,1.414L23,17.414l2.293,2.293a1,1,0,0,0,1.414-1.414Z"></path></g></svg>