<svg height='300px' width='300px'  fill="#000000" xmlns="http://www.w3.org/2000/svg" viewBox="0 0 32 32" x="0px" y="0px"><title>next</title><g><path d="M25,25a1,1,0,0,1-1-1V8a1,1,0,0,1,2,0V24A1,1,0,0,1,25,25Z"></path><path d="M8.174,24.981A2.174,2.174,0,0,1,6,22.808V8.955A2.174,2.174,0,0,1,9.2,7.037h0L20.739,13.2a2.173,2.173,0,0,1,.183,3.725l-11.543,7.7A2.168,2.168,0,0,1,8.174,24.981Zm0-16.2a.173.173,0,0,0-.089.026A.165.165,0,0,0,8,8.955V22.808a.162.162,0,0,0,.092.153.167.167,0,0,0,.178-.009l11.543-7.7a.172.172,0,0,0-.014-.3L8.255,8.8A.173.173,0,0,0,8.173,8.78Z"></path></g></svg>