<svg height='300px' width='300px'  fill="#000000" xmlns="http://www.w3.org/2000/svg" viewBox="0 0 32 32" x="0px" y="0px"><title>previous</title><g><path d="M7,25a1,1,0,0,1-1-1V8A1,1,0,0,1,8,8V24A1,1,0,0,1,7,25Z"></path><path d="M23.826,24.981a2.172,2.172,0,0,1-1.205-.366l-11.543-7.7a2.174,2.174,0,0,1,.183-3.726L22.8,7.038A2.173,2.173,0,0,1,26,8.956V22.808a2.175,2.175,0,0,1-2.174,2.174Zm0-16.2a.172.172,0,0,0-.082.022h0L12.2,14.959a.173.173,0,0,0-.015.3l11.543,7.7a.173.173,0,0,0,.27-.144V8.956a.163.163,0,0,0-.084-.148A.17.17,0,0,0,23.827,8.781Zm-.553-.86h0Z"></path></g></svg>