<svg height='300px' width='300px'  fill="#000000" xmlns="http://www.w3.org/2000/svg" viewBox="0 0 32 32" x="0px" y="0px"><title>Artboard 35</title><g data-name="Layer 3"><path d="M24,6H10l1.12-1.12A1,1,0,0,0,9.71,3.46L6.88,6.29a1,1,0,0,0,0,1.41l2.83,2.83a1,1,0,0,0,1.41-1.41L10,8H24a5,5,0,0,1,5,5v8a1,1,0,0,0,2,0V13A7,7,0,0,0,24,6Z"></path><path d="M22.29,23.46a1,1,0,0,0-1.41,1.41L22,26H8a5,5,0,0,1-5-5V13a1,1,0,0,0-2,0v8a7,7,0,0,0,7,7H22l-1.12,1.12a1,1,0,1,0,1.41,1.41l2.83-2.83a1,1,0,0,0,0-1.41Z"></path><path d="M16,22a1,1,0,0,0,1-1V13a1,1,0,0,0-1.71-.71l-2,2a1,1,0,0,0,1.41,1.41l.29-.29V21A1,1,0,0,0,16,22Z"></path></g></svg>