<svg height='300px' width='300px'  fill="#000000" xmlns="http://www.w3.org/2000/svg" xmlns:xlink="http://www.w3.org/1999/xlink" version="1.1" x="0px" y="0px" viewBox="0 0 20 20" enable-background="new 0 0 20 20" xml:space="preserve"><path d="M-151.035,8.769l0.005-0.031c1.093-0.763,21.969-15.506,26.22-18.508l0.02,0.01c0.275-0.229,0.617-0.384,1.002-0.384  c0.877,0,1.588,0.71,1.588,1.588c0,3.728,0,10.386,0,17.151c2.398-1.686,21.919-15.473,26.015-18.365l0.02,0.01  c0.275-0.229,0.616-0.384,1.002-0.384c0.876,0,1.588,0.71,1.588,1.588c0,8.215,0,30.667,0,37.114c0,0.876-0.711,1.588-1.588,1.588  c-0.368,0-0.691-0.145-0.96-0.356l-0.021,0.01c-5.056-3.565-22.426-15.801-26.055-18.362c0,7.167,0,14.01,0,17.121  c0,0.876-0.711,1.588-1.588,1.588c-0.368,0-0.691-0.145-0.96-0.356l-0.022,0.01c-5.083-3.585-22.627-15.944-26.125-18.411  c-0.103-0.073-0.192-0.136-0.268-0.19l-0.191-0.287c-0.166-0.258-0.288-0.55-0.288-0.879  C-151.643,9.518-151.398,9.075-151.035,8.769z"></path><path d="M-82.008,9.22l0.003-0.02c0.693-0.484,13.926-9.83,16.621-11.733l0.013,0.006c0.174-0.145,0.391-0.244,0.635-0.244  c0.556,0,1.007,0.45,1.007,1.007c0,2.363,0,6.584,0,10.873c1.52-1.068,13.895-9.809,16.491-11.642l0.013,0.006  c0.174-0.145,0.391-0.244,0.635-0.244c0.555,0,1.006,0.45,1.006,1.007c0,5.208,0,19.44,0,23.527c0,0.556-0.451,1.007-1.006,1.007  c-0.233,0-0.438-0.092-0.609-0.226l-0.014,0.006c-3.205-2.26-14.216-10.017-16.517-11.64c0,4.543,0,8.881,0,10.853  c0,0.556-0.451,1.007-1.007,1.007c-0.233,0-0.438-0.092-0.609-0.226l-0.014,0.006c-3.223-2.272-14.344-10.107-16.561-11.671  c-0.065-0.046-0.122-0.086-0.17-0.121l-0.121-0.182c-0.105-0.163-0.183-0.349-0.183-0.557C-82.394,9.694-82.239,9.414-82.008,9.22z"></path><path d="M-34.353,10.278l0.002-0.015c0.523-0.366,10.521-7.427,12.557-8.864l0.009,0.005c0.132-0.109,0.295-0.184,0.48-0.184  c0.42,0,0.761,0.34,0.761,0.761c0,1.785,0,4.974,0,8.214c1.148-0.807,10.497-7.41,12.459-8.795l0.01,0.005  c0.132-0.109,0.295-0.184,0.48-0.184c0.419,0,0.76,0.34,0.76,0.761c0,3.934,0,14.687,0,17.774c0,0.42-0.341,0.761-0.76,0.761  c-0.177,0-0.331-0.069-0.46-0.171l-0.01,0.005c-2.422-1.708-10.74-7.567-12.479-8.794c0,3.433,0,6.709,0,8.199  c0,0.42-0.341,0.761-0.761,0.761c-0.176,0-0.331-0.069-0.459-0.171l-0.011,0.005c-2.435-1.717-10.836-7.636-12.512-8.817  c-0.05-0.035-0.092-0.065-0.128-0.091l-0.091-0.138c-0.08-0.123-0.138-0.263-0.138-0.42C-34.644,10.637-34.527,10.425-34.353,10.278  z"></path><path d="M1.464,10.492l0.002-0.009C1.8,10.25,8.17,5.75,9.468,4.834l0.006,0.003C9.558,4.768,9.662,4.72,9.78,4.72  c0.268,0,0.485,0.217,0.485,0.485c0,1.138,0,3.169,0,5.234c0.731-0.514,6.689-4.722,7.939-5.604l0.006,0.003  c0.084-0.069,0.188-0.117,0.306-0.117C18.783,4.72,19,4.937,19,5.205c0,2.507,0,9.358,0,11.326c0,0.268-0.217,0.485-0.484,0.485  c-0.112,0-0.211-0.044-0.293-0.109l-0.006,0.003c-1.543-1.088-6.844-4.822-7.952-5.604c0,2.188,0,4.275,0,5.225  c0,0.268-0.217,0.485-0.485,0.485c-0.112,0-0.211-0.044-0.293-0.109L9.48,16.91c-1.551-1.094-6.905-4.866-7.973-5.619  c-0.032-0.022-0.059-0.041-0.082-0.058l-0.058-0.088c-0.051-0.078-0.088-0.167-0.088-0.268C1.279,10.721,1.354,10.585,1.464,10.492z  "></path></svg>