<svg height='300px' width='300px'  fill="#000000" xmlns="http://www.w3.org/2000/svg" viewBox="0 0 32 32" x="0px" y="0px"><title>shuffle play</title><path d="M26.923,20.118a1,1,0,0,0-.217-.327l-2-2a1,1,0,0,0-1.414,1.414l.239.239A9.059,9.059,0,0,1,17.253,16a9.059,9.059,0,0,1,6.278-3.446l-.239.239a1,1,0,1,0,1.414,1.414l2-2a1,1,0,0,0,0-1.417l-2-2a1,1,0,0,0-1.414,1.414l.341.341A11.061,11.061,0,0,0,16,14.35,11.079,11.079,0,0,0,7.592,10.5H6a1,1,0,0,0,0,2H7.592A9.072,9.072,0,0,1,14.747,16a9.072,9.072,0,0,1-7.155,3.5H6a1,1,0,0,0,0,2H7.592A11.079,11.079,0,0,0,16,17.65a11.061,11.061,0,0,0,7.634,3.8l-.341.341a1,1,0,1,0,1.414,1.414l2-2a1,1,0,0,0,.217-1.09Z"></path></svg>