<svg height='300px' width='300px'  fill="#000000" xmlns="http://www.w3.org/2000/svg" viewBox="0 0 32 32" x="0px" y="0px"><title>volume</title><g><path d="M15.723,26a2.288,2.288,0,0,1-1.916-1.047L11.511,22H7a2,2,0,0,1-2-2V12a2,2,0,0,1,2-2h4.511l2.3-2.953A2.277,2.277,0,0,1,18,8.277V23.723A2.28,2.28,0,0,1,15.723,26ZM7,12v8h5a1,1,0,0,1,.789.386l2.628,3.38a.863.863,0,0,1,.068.1A.288.288,0,0,0,16,23.723V8.277a.288.288,0,0,0-.515-.143.863.863,0,0,1-.068.1l-2.628,3.38A1,1,0,0,1,12,12Zm7.628-4.38h0Z"></path><path d="M24,25a1,1,0,0,1-.894-1.447,16.972,16.972,0,0,0,0-15.105,1,1,0,0,1,1.789-.895,18.98,18.98,0,0,1,0,16.895A1,1,0,0,1,24,25Z"></path><path d="M21,21a.986.986,0,0,1-.222-.025,1,1,0,0,1-.755-1.2,16.65,16.65,0,0,0,0-7.55,1,1,0,1,1,1.947-.457,18.648,18.648,0,0,1,0,8.45A1,1,0,0,1,21,21Z"></path></g></svg>