<svg height='300px' width='300px'  fill="#000000" xmlns="http://www.w3.org/2000/svg" viewBox="0 0 32 32" x="0px" y="0px"><title>volume down</title><g><path d="M16.1,5.819a1.781,1.781,0,0,0-1.794,0L8.734,9H7.208A2.211,2.211,0,0,0,5,11.209v9.582A2.211,2.211,0,0,0,7.208,23H8.734l5.575,3.186A1.8,1.8,0,0,0,17,24.624V7.376A1.782,1.782,0,0,0,16.1,5.819ZM15,24.276,9.5,21.132A.994.994,0,0,0,9,21H7.208A.209.209,0,0,1,7,20.791V11.209A.209.209,0,0,1,7.208,11H9a.994.994,0,0,0,.5-.132L15,7.724Z"></path><path d="M26.707,19.293a1,1,0,0,0-1.414,0L24,20.586V9a1,1,0,0,0-2,0V20.586l-1.293-1.293a1,1,0,0,0-1.414,1.414l3,3a1,1,0,0,0,1.415,0l3-3A1,1,0,0,0,26.707,19.293Z"></path></g></svg>