<svg height='300px' width='300px'  fill="#000000" xmlns="http://www.w3.org/2000/svg" viewBox="0 0 32 32" x="0px" y="0px"><title>volume max</title><g><path d="M15.723,26a2.289,2.289,0,0,1-1.916-1.047L11.511,22H7a2,2,0,0,1-2-2V12a2,2,0,0,1,2-2h4.511l2.3-2.953A2.277,2.277,0,0,1,18,8.277V23.723A2.28,2.28,0,0,1,15.723,26ZM7,12v8h5a1,1,0,0,1,.79.386l2.628,3.38a1.046,1.046,0,0,1,.068.1A.287.287,0,0,0,16,23.723V8.277a.288.288,0,0,0-.515-.142,1.046,1.046,0,0,1-.068.1l-2.628,3.38A1,1,0,0,1,12,12Zm7.628-4.38h0Z"></path><path d="M26,11H20a1,1,0,0,1,0-2h6a1,1,0,0,1,0,2Z"></path><path d="M25,17H21a1,1,0,0,1,0-2h4a1,1,0,0,1,0,2Z"></path><path d="M24,23H22a1,1,0,0,1,0-2h2a1,1,0,0,1,0,2Z"></path></g></svg>